<svg t="1708100451221" class="icon" viewBox="0 0 1024 1024" version="1.1" xmlns="http://www.w3.org/2000/svg" p-id="104635" width="128" height="128"><path d="M821.684706 441.524706c0-7.077647-0.301176-84.630588-1.807059-92.611765a136.417882 136.417882 0 0 0-134.324706-110.983529h-525.854117a136.086588 136.086588 0 0 0-136.58353 135.68v455.68a136.086588 136.086588 0 0 0 136.58353 135.68h525.854117a136.146824 136.146824 0 0 0 134.625883-113.091765c1.355294-7.378824 1.505882-82.070588 1.505882-88.545882a13.086118 13.086118 0 0 1 4.818823-10.24 11.941647 11.941647 0 0 1 10.691765-1.957647l91.708235 28.762353a43.670588 43.670588 0 0 0 54.814118-31.171765 48.188235 48.188235 0 0 0 1.807059-13.101177V467.425882a45.176471 45.176471 0 0 0-43.971765-46.230588 41.020235 41.020235 0 0 0-12.649412 1.957647l-93.364705 29.214118a10.285176 10.285176 0 0 1-9.487059-1.656471 11.941647 11.941647 0 0 1-4.367059-9.185882z m-508.536471 280.395294v-236.423529a55.401412 55.401412 0 0 1 84.781177-46.682353l186.88 118.211764a55.235765 55.235765 0 0 1 0 93.364706l-186.729412 118.211765a55.461647 55.461647 0 0 1-76.348235-17.167059 54.889412 54.889412 0 0 1-8.58353-29.515294z m581.722353-361.411765a204.333176 204.333176 0 0 0-11.294117-60.235294h117.157647v60.235294h-105.86353z m-82.070588-155.708235l106.465882-106.465882 42.465883 42.465882-106.465883 106.465882a202.736941 202.736941 0 0 0-42.465882-42.465882z m-113.242353-39.604706V59.331765h60.235294v117.157647a204.333176 204.333176 0 0 0-60.235294-11.294118z" p-id="104636" fill="#4a7def"></path></svg>