<svg t="1708185672776" class="icon" viewBox="0 0 1024 1024" version="1.1" xmlns="http://www.w3.org/2000/svg" p-id="113286" width="128" height="128"><path d="M0.023552 512.038397a511.961603 511.961603 0 1 0 1023.923206 0 511.961603 511.961603 0 1 0-1023.923206 0Z" fill="#FFC8CA" p-id="113287"></path><path d="M447.170816 825.393029h0.955662c0-2.423285-0.477831-4.368739-0.477831-6.826155v-16.519294A285.333267 285.333267 0 0 1 335.972756 736.482364l-1.467623-1.467623 1.467623 1.467623a10.682932 10.682932 0 0 0 2.423285 1.945454A280.62322 280.62322 0 0 1 260.680269 620.437734a48.943529 48.943529 0 0 1-11.638593 1.945454h-3.413078a37.543851 37.543851 0 0 1-34.472081-37.885159 42.117375 42.117375 0 0 1 2.423285-13.652309 49.045922 49.045922 0 0 0 30.717696-8.737478 14.744494 14.744494 0 0 0 3.413077-2.423285l1.467624-1.467623a43.550867 43.550867 0 0 0 9.72727-11.160763 53.346399 53.346399 0 0 0 3.890908-7.269855 226.662467 226.662467 0 0 0 13.106217-35.939705c1.467623-5.836362 3.413077-12.150555 4.84657-18.464748a49.114183 49.114183 0 0 1 3.413078-14.57384c3.413077-6.314193 9.215309-6.826155 15.051671-9.215309a225.979852 225.979852 0 0 0 21.843695-10.682932 0.477831 0.477831 0 0 0 0.375438-0.40957 52.732045 52.732045 0 0 0 5.358532-2.901115 143.895341 143.895341 0 0 0 60.650384-65.087385 117.614646 117.614646 0 0 0 23.891542 22.833487 151.438242 151.438242 0 0 0 109.764567 21.843695 62.425185 62.425185 0 0 0 17.474956 22.833488l0.955662 0.955661a206.866618 206.866618 0 0 0 47.612429 25.734604 162.906182 162.906182 0 0 0 99.559467 17.065386 93.142881 93.142881 0 0 0 70.889616 60.718646 27.645927 27.645927 0 0 0 6.314193 0.477831c4.84657 0.477831 10.682932 6.314193 16.007333 7.781817 0.477831 0 0.989792 0 0.989792 0.47783a17.406694 17.406694 0 0 0 5.324401 0.955662 42.629336 42.629336 0 0 0 13.65231-0.477831c3.890908-0.477831 7.269855-1.945454 11.160763-2.423285a38.089943 38.089943 0 0 1 7.781816 22.833488 38.704297 38.704297 0 0 1-34.130774 37.885158h-3.890908a28.567457 28.567457 0 0 1-11.160763-1.945454 291.715721 291.715721 0 0 1-188.811439 181.541585v16.041463a32.253581 32.253581 0 0 1-0.477831 6.826155h1.945454A147.37668 147.37668 0 0 1 714.27825 907.136231a91.470473 91.470473 0 0 1 5.358531 12.150556c35.939705-12.150555 68.944163-42.731728 85.941288-116.556592a682.615471 682.615471 0 0 0 13.652309-106.829321c4.368739-68.944163 11.672725-139.390079 13.106217-208.812072v-1.638277a16.451033 16.451033 0 0 0-0.477831-4.84657 159.083535 159.083535 0 0 0-1.467623-29.147681A471.004675 471.004675 0 0 0 792.437721 334.421852a424.313776 424.313776 0 0 0-28.157888-52.93683A255.980801 255.980801 0 0 0 652.501549 179.536401 323.559733 323.559733 0 0 0 498.640022 153.767667 344.720813 344.720813 0 0 0 413.586135 171.754585a199.86981 199.86981 0 0 0-68.261547 36.895366C282.046134 214.964144 240.782028 283.430476 218.460503 343.978468a440.525894 440.525894 0 0 0-24.301111 112.358507A574.04548 574.04548 0 0 0 191.736107 514.120374c0 9.215309 0.477831 18.942579 0.955662 28.157888a147.206026 147.206026 0 0 0 0.955661 19.420411c0.477831 36.417535 0.989792 71.879409 2.901116 108.774775a572.953295 572.953295 0 0 0 21.365864 154.44175 134.031548 134.031548 0 0 0 91.77765 94.678766 116.249415 116.249415 0 0 1 6.314193-13.65231 146.762326 146.762326 0 0 1 131.130432-80.616887" fill="#333333" p-id="113288"></path><path d="M719.60265 919.593964a131.096301 131.096301 0 0 0-5.358531-12.150556 147.683857 147.683857 0 0 0-132.086094-82.562341h-1.945454a65.73587 65.73587 0 0 1-65.087385 58.773192h-1.945454a65.360431 65.360431 0 0 1-65.087385-58.773192h-0.955662a147.649726 147.649726 0 0 0-131.608263 81.094718c-2.423285 4.368739-4.368739 9.215309-6.314193 13.65231a143.82708 143.82708 0 0 0-9.72727 52.458998v5.324401a505.783933 505.783933 0 0 0 211.610796 46.622637 514.726196 514.726196 0 0 0 217.54955-48.670483v-3.413078a137.308102 137.308102 0 0 0-9.215309-52.458999" fill="#F2AB2C" p-id="113289"></path><path d="M580.724533 802.525411a291.715721 291.715721 0 0 0 188.913831-181.609846 41.503021 41.503021 0 0 0 11.160763 1.945454h3.890908a37.987551 37.987551 0 0 0 34.130774-37.885159 37.031889 37.031889 0 0 0-7.781816-22.833487c-3.890908 0.477831-7.269855 1.945454-11.160763 2.423285a42.561075 42.561075 0 0 1-13.65231 0.47783c-1.945454-0.477831-3.413077-0.477831-5.324401-0.989792-0.477831 0-0.989792 0-0.989792-0.477831-5.324401-1.467623-11.160763-7.269855-16.007333-7.781816-1.945454 0-4.368739-0.477831-6.314193-0.477831a92.392004 92.392004 0 0 1-70.889616-60.684515 162.940313 162.940313 0 0 1-99.559467-17.065387 217.413027 217.413027 0 0 1-47.612429-25.734603l-0.955662-0.955662a62.459316 62.459316 0 0 1-17.474956-22.833488 151.438242 151.438242 0 0 1-109.764567-21.843695 117.546384 117.546384 0 0 1-23.891542-22.833487 143.929472 143.929472 0 0 1-60.684515 65.087385 53.721838 53.721838 0 0 0-5.358531 2.901116 0.477831 0.477831 0 0 0-0.477831 0.477831 226.082244 226.082244 0 0 1-21.843695 10.682932c-5.836362 2.423285-11.672725 2.901116-15.051671 9.215309a49.114183 49.114183 0 0 0-3.413078 14.57384c-1.467623 6.314193-3.413077 12.628386-4.84657 18.464748a226.79899 226.79899 0 0 1-13.106217 35.939705 53.551184 53.551184 0 0 1-3.890908 7.269855 43.653259 43.653259 0 0 1-9.72727 11.160763l-1.467624 1.467623a20.478464 20.478464 0 0 1-3.413077 2.423285 53.346399 53.346399 0 0 1-30.717696 8.737478 42.083244 42.083244 0 0 0-2.423285 13.652309 38.021682 38.021682 0 0 0 34.472081 37.885159h3.413078a30.922481 30.922481 0 0 0 11.638593-1.945454 280.589089 280.589089 0 0 0 77.681641 118.024215 233.727537 233.727537 0 0 0 109.218475 39.830612 453.188411 453.188411 0 0 0 67.51067 4.84657 435.576932 435.576932 0 0 0 65.565216-4.368739 222.976343 222.976343 0 0 0 112.631553-42.253898l1.467623-1.467623-1.467623 1.467623a290.111575 290.111575 0 0 1-112.631553 65.087386 236.321476 236.321476 0 0 1-65.565216 10.239232h-0.273046a229.87076 229.87076 0 0 1-67.032839-10.682932v16.519294a32.048796 32.048796 0 0 0 0.477831 6.826155 65.360431 65.360431 0 0 0 65.087385 58.773192h1.945454a65.701739 65.701739 0 0 0 65.053254-58.807323c0-2.423285 0.477831-4.368739 0.477831-6.826155z m-173.862161-225.263106a29.147681 29.147681 0 0 1-25.256772-31.570965 25.871126 25.871126 0 1 1 25.256772 31.570965m173.38433 128.707147a75.394879 75.394879 0 0 1-21.365864 23.311319 70.821355 70.821355 0 0 1-41.264105 13.106217 74.063779 74.063779 0 0 1-34.472082-8.737478 79.115133 79.115133 0 0 1-10.682932-6.826155 72.80094 72.80094 0 0 1-27.714188-53.994884h144.71448a63.722154 63.722154 0 0 1-9.215309 33.038589m41.776067-128.707147a29.147681 29.147681 0 0 1-25.256773-31.570966 25.871126 25.871126 0 1 1 25.256773 31.570966" fill="#FFDBC5" p-id="113290"></path><path d="M335.972756 737.028456l-1.467623-1.467623z m179.186561 75.770317a217.242373 217.242373 0 0 0 65.565216-10.239232 285.401528 285.401528 0 0 0 112.631552-65.565216 223.078736 223.078736 0 0 1-112.631552 42.253898 435.576932 435.576932 0 0 1-65.565216 4.368739 453.290803 453.290803 0 0 1-67.51067-4.84657 236.355607 236.355607 0 0 1-109.218475-39.830612c-0.955662-0.955662-1.945454-1.467623-2.423285-1.945455a297.620345 297.620345 0 0 0 111.675891 65.565216 247.175062 247.175062 0 0 0 67.51067 10.239232m178.230899-75.770317l1.467623-1.467623z" fill="#FFC0AD" p-id="113291"></path><path d="M406.998896 514.120374a28.806373 28.806373 0 0 0-25.256773 31.570966 29.147681 29.147681 0 0 0 25.256773 31.570965 32.355973 32.355973 0 0 0 0-63.141931m-5.836363 41.264105a3.651993 3.651993 0 0 1-3.413077-3.413077 3.413077 3.413077 0 1 1 3.413077 3.413077m12.628386-13.106217a9.72727 9.72727 0 1 1 9.727271-9.72727 9.72727 9.72727 0 0 1-9.727271 9.72727" fill="#191919" p-id="113292"></path><path d="M404.09778 532.585123a9.72727 9.72727 0 1 0 9.72727-9.727271 9.72727 9.72727 0 0 0-9.72727 9.727271" fill="#FFFFFF" p-id="113293"></path><path d="M401.060141 548.592456a3.413077 3.413077 0 0 0-3.413077 3.413077 3.651993 3.651993 0 0 0 3.413077 3.413077 3.413077 3.413077 0 1 0 0-6.826154" fill="#FFFFFF" p-id="113294"></path><path d="M621.988638 514.120374a28.806373 28.806373 0 0 0-25.256772 31.570966 29.147681 29.147681 0 0 0 25.256772 31.570965 32.355973 32.355973 0 0 0 0-63.141931m-4.84657 41.264105a4.095693 4.095693 0 0 1-3.413077-3.413077 3.413077 3.413077 0 1 1 3.413077 3.413077m12.628386-13.106217a9.72727 9.72727 0 1 1 9.727271-9.72727 9.72727 9.72727 0 0 1-9.727271 9.72727" fill="#191919" p-id="113295"></path><path d="M574.512732 685.525119H460.379425v-12.628386H445.327754a72.80094 72.80094 0 0 0 27.680058 53.892491 78.944479 78.944479 0 0 0 10.682932 6.826155 74.063779 74.063779 0 0 1 15.529502-19.42041 69.319601 69.319601 0 0 1 46.622636-17.474956 70.821355 70.821355 0 0 1 34.949912 9.215309 70.684832 70.684832 0 0 0 9.727271-33.038589h-15.529502v12.628386z" fill="#FF6760" p-id="113296"></path><path d="M498.640022 714.160838a67.032839 67.032839 0 0 0-15.529502 19.42041 74.063779 74.063779 0 0 0 34.472082 8.737478 71.981801 71.981801 0 0 0 41.264105-13.106217 75.394879 75.394879 0 0 0 21.365864-23.311318 70.821355 70.821355 0 0 0-34.949912-9.215309 71.674624 71.674624 0 0 0-46.622637 17.474956" fill="#F39FAE" p-id="113297"></path><path d="M460.277033 672.896733h114.133307v12.628386H460.277033z" fill="#FFFFFF" p-id="113298"></path><path d="M620.043184 532.585123a9.72727 9.72727 0 1 0 9.72727-9.727271 9.72727 9.72727 0 0 0-9.72727 9.727271" fill="#FFFFFF" p-id="113299"></path><path d="M617.142068 548.592456a3.413077 3.413077 0 0 0-3.413077 3.413077 4.095693 4.095693 0 0 0 3.413077 3.413077 3.413077 3.413077 0 1 0 0-6.826154" fill="#FFFFFF" p-id="113300"></path></svg>