<svg t="1706282219592" class="icon" viewBox="0 0 2831 1024" version="1.1" xmlns="http://www.w3.org/2000/svg" p-id="6239" width="128" height="128"><path d="M0 0m323.555422 0l1141.960313 0q323.555422 0 323.555422 323.555422l0 0q0 323.555422-323.555422 323.555422l-1141.960313 0q-323.555422 0-323.555422-323.555422l0 0q0-323.555422 323.555422-323.555422Z" fill="#FF5D45" opacity=".1" p-id="6240"></path><path d="M635.082195 208.065169v23.638579h128.470536c-1.71294 9.249879-3.768469 18.842345-5.823998 28.434811H677.563119v200.071447h-48.990097v22.953402h303.875639v-22.953402h-50.703038V260.138559h-98.665371c2.055529-8.90729 4.111057-18.499757 5.823998-28.434811h136.692649v-23.638579h-132.92418c1.370352-9.249879 2.398117-18.842345 3.425881-28.7774l-25.008931-3.425881c-1.027764 10.620231-2.398117 21.240462-3.768469 32.203281h-132.239005z m66.804679 252.144837v-30.147752h155.534994v30.147752h-155.534994z m0-50.36045v-29.119988h155.534994v29.119988h-155.534994z m0-48.990097v-28.7774h155.534994v28.7774h-155.534994z m0-48.990097V282.064197h155.534994v29.805165h-155.534994zM1161.297508 367.026045v34.258809h-51.388214v-34.258809h51.388214z m0 53.78633v32.888457h-51.388214v-32.888457h51.388214z m21.240462 32.888457v-32.888457h50.703038v32.888457h-50.703038z m50.703038 20.897874v16.786817h22.610814V346.813347h-162.044169c27.749636-16.444229 48.647509-36.656926 63.03621-59.952916h3.768469v48.990097h22.268226V286.860431h4.111057c21.58305 28.7774 50.017862 51.388214 85.647023 68.517618l10.962819-20.555285c-33.916221-13.703524-59.952916-29.462576-78.110085-47.962333h67.489854V264.934793h-42.138335c7.19435-10.962819 13.703524-23.638578 19.527521-37.342103l-21.240462-7.536938c-5.823998 15.759052-12.675759 30.832928-20.212697 44.879041h-26.036695V213.20399a537.558785 537.558785 0 0 0 85.304435-14.388699l-11.305407-19.87011c-48.647509 11.647995-109.62819 17.814581-182.942042 18.157169l7.19435 20.555286c28.092224 0 54.814095-1.027764 79.480438-2.398117V264.934793h-27.407048a214.003363 214.003363 0 0 0-16.10164-37.342103l-20.555286 7.879527c5.823998 8.90729 10.962819 18.842345 15.759052 29.462576h-39.055042v21.925638h65.434326c-16.444229 20.212698-41.795747 36.999514-76.054557 50.360449v-18.499757c-9.249879 5.138821-18.499757 10.277643-28.092224 15.073877V265.962557h29.805164v-23.29599h-29.805164V177.917417h-24.666343v64.74915h-39.740219v23.29599h39.740219v78.795262c-14.731288 5.823998-29.805164 10.962819-45.564216 15.073876l6.166585 24.323754c13.018348-4.796233 26.379283-9.592467 39.397631-15.073876v83.934083c0 8.564702-4.453645 13.018348-13.018347 13.018348-8.222114 0-16.786817-0.685176-25.694107-1.712941l5.138821 23.638579h29.119988c19.184933 0 29.119988-9.592467 29.119988-28.434812V357.776166c9.592467-4.796233 18.842345-9.592467 28.092224-14.731288v-4.453645l11.647995 18.842345c4.111057-2.055529 8.564702-4.453645 13.018348-6.851762v140.803707h22.610814v-16.786817h123.331714z m-50.703038-73.313852v-34.258809h50.703038v34.258809h-50.703038zM1452.839976 175.5193v61.665857h-122.646538v161.016404h24.666343v-21.58305h97.980195v116.82254h25.351519V376.618511h98.322783v21.58305h24.666342v-161.016404h-122.989125v-61.665857h-25.351519z m-97.980195 177.118045V261.166324h97.980195v91.471021h-97.980195z m123.331714 0V261.166324h98.322783v91.471021h-98.322783z" fill="#FD6245" p-id="6241"></path><path d="M323.555422 152.261375a171.294047 171.294047 0 1 1 0 342.588094 171.294047 171.294047 0 0 1 0-342.588094z m0 20.935939a150.358108 150.358108 0 1 0 0 300.716216 150.358108 150.358108 0 0 0 0-300.716216z" fill="#F56849" p-id="6242"></path><path d="M323.555422 426.407981a102.776428 102.776428 0 1 0 0-205.552856 102.776428 102.776428 0 0 0 0 205.552856z" fill="#FD6245" p-id="6243"></path></svg>