<svg t="1708190840113" class="icon" viewBox="0 0 1024 1024" version="1.1" xmlns="http://www.w3.org/2000/svg" p-id="115346" width="128" height="128"><path d="M512 1024C229.6 1024 0 794.4 0 512S229.6 0 512 0s512 229.6 512 512-229.6 512-512 512z m0-938.4C276.8 85.6 85.6 276.8 85.6 512S276.8 938.4 512 938.4 938.4 747.2 938.4 512 747.2 85.6 512 85.6z" fill="#A4A5A5" p-id="115347"></path><path d="M716 587.2H520c-24 0-43.2-19.2-43.2-43.2V348c0-20 16-36 36-36s36 16 36 36v168h168c20 0 36 16 36 36-1.6 20-17.6 35.2-36.8 35.2z" fill="#A4A5A5" p-id="115348"></path></svg>