<svg t="1706282166725" class="icon" viewBox="0 0 2901 1024" version="1.1" xmlns="http://www.w3.org/2000/svg" p-id="4318" width="128" height="128"><path d="M0 0m317.581966 0l1164.46721 0q317.581966 0 317.581966 317.581966l0 0q0 317.581966-317.581966 317.581966l-1164.46721 0q-317.581966 0-317.581966-317.581966l0 0q0-317.581966 317.581966-317.581966Z" fill="#898F97" p-id="4319"></path><path d="M878.043563 451.67213q-9.63332 11.715246-19.301926 25.512418a355.93881 355.93881 0 0 1-139.559631-117.25832v144.111639h-26.888607v-143.688196a471.820941 471.820941 0 0 1-139.912499 120.963442 292.881147 292.881147 0 0 0-18.596189-23.11291 450.225367 450.225367 0 0 0 147.816762-118.211065h-142.312008v-25.512418h153.003934v-64.751434h-132.678688v-25.512418h132.678688v-58.929098h26.888607v58.929098h134.090163v25.512418h-134.090163v64.786721h153.003934v25.512418h-143.370614a339.248114 339.248114 0 0 0 149.228237 111.647705z m11.185942-133.702008h89.946271v-100.285328h-74.949344v-27.135614h309.113113v27.206188h-70.291475v100.285328h84.935533v27.206188h-84.935533v157.061926h-28.229508v-157.1325h-107.73086a209.568811 209.568811 0 0 1-18.102172 93.721967 184.797417 184.797417 0 0 1-77.631148 67.891967 273.367499 273.367499 0 0 0-19.654795-24.136229 169.377049 169.377049 0 0 0 70.432623-56.141434 159.84959 159.84959 0 0 0 16.725984-81.159836h-89.628689z m118.211066 0h107.519139v-100.285328h-107.695574z m578.916637 16.19668q-9.63332 14.820492-16.902418 26.182869a209.110081 209.110081 0 0 1-96.474344-72.020533h-1.517336v57.482336h-24.70082v-57.482336h-1.023319a261.405245 261.405245 0 0 1-74.914057 68.068402h186.773483v149.016516h-24.13623v-16.549549h-147.816762v16.549549h-24.136229v-142.982459q-7.939549 4.834303-16.19668 9.315738-7.939549-9.63332-18.278607-20.325246a274.60254 274.60254 0 0 0 91.745902-63.057664h-73.74959v-22.054303h101.732089v-56.212008q-43.755738 2.752377-89.593401 4.481434-1.729057-10.339057-4.834303-23.077622 126.185901-4.128566 206.639999-12.773853l4.834303 23.430492q-44.814344 3.775697-92.345778 6.563361v57.552909h107.872008v22.054303h-81.724426a196.583237 196.583237 0 0 0 88.570082 45.837664z m-347.011228 17.643443q22.407172-8.962869 46.190532-18.596189v-74.87877h-43.755737v-24.70082h43.755737v-63.163524h25.512418v63.057664h35.851476v24.700819h-36.063197v64.080984q15.173361-6.563361 30.664303-13.444303a228.27086 228.27086 0 0 0 3.105246 25.829999l-33.769549 15.490943v114.576516q0 36.874795-33.41668 37.227664-11.715246 0.352869-32.393361-0.352869-1.376189-14.114754-4.128565-28.617664 21.172131 2.081926 29.640983 2.081926 14.820492 0 14.820492-16.902418v-96.121475q-21.172131 9.63332-41.003361 18.949058z m231.728974 115.705696h62.387213v-34.475287h-62.387213z m62.387213-89.593401h-62.387213v34.475287h62.387213z m-147.816762 34.475287h62.034344v-34.475287h-62.034344z m0 55.153401h62.034344v-34.510574h-62.034344z m107.519139-218.143524a522.563482 522.563482 0 0 0 43.085287-38.603852l19.301926 16.19668q-18.596188 16.902418-46.190532 38.815574z m-127.879671-18.278606l16.549549-14.820492q18.949057 15.490943 38.250983 33.099098l-18.278606 16.549549q-20.642828-21.06627-36.521926-34.828155z" fill="#F7F7F7" p-id="4320"></path><path d="M388.155736 458.729507v-141.147541h70.573771v141.147541z m-105.860655 0v-247.008196h70.57377v247.008196z m-105.860655 0v-141.147541h70.57377v141.147541z" fill="#F7F7F7" p-id="4321"></path></svg>