<svg t="1708185845734" class="icon" viewBox="0 0 1024 1024" version="1.1" xmlns="http://www.w3.org/2000/svg" p-id="113455" width="128" height="128"><path d="M511.991467 0A511.991467 511.991467 0 1 1 0 511.991467 511.991467 511.991467 0 0 1 511.991467 0z" fill="#ABD5FF" p-id="113456"></path><path d="M399.626406 597.698838a31.026683 31.026683 0 1 0-24.268395-30.241629 27.715805 27.715805 0 0 0 24.268395 30.241629m6.007367-51.472208a9.249979 9.249979 0 1 1-6.553491 2.696488 9.249979 9.249979 0 0 1 6.553491-2.696488m199.096415 51.472208a31.026683 31.026683 0 1 0-24.20013-30.241629 27.715805 27.715805 0 0 0 24.20013 30.241629m6.826553-51.472208a9.249979 9.249979 0 1 1-6.553491 2.696488 9.249979 9.249979 0 0 1 6.553491-2.696488" fill="#191919" p-id="113457"></path><path d="M502.536691 890.182497h-2.047966a62.531224 62.531224 0 0 1-61.9851-55.875335h-0.511992a140.319795 140.319795 0 0 0-140.319794 140.319794v1.160514a467.994333 467.994333 0 0 0 215.855602 48.093065 498.099432 498.099432 0 0 0 193.532775-38.979617v-10.239829a140.319795 140.319795 0 0 0-140.490459-140.319795h-1.843169a62.531224 62.531224 0 0 1-62.155764 55.875336" fill="#3390FF" p-id="113458"></path><path d="M674.087965 748.633923a29.729638 29.729638 0 0 1-1.911435 1.706638 21.947368 21.947368 0 0 0 1.911435-1.706638m-342.795353 0.921584l-1.058116-0.921584z m171.619539 45.123515a437.104182 437.104182 0 0 1-64.852252-4.642056 210.326095 210.326095 0 0 1-106.460092-40.515591 276.20233 276.20233 0 0 0 106.460092 62.633622 231.38601 231.38601 0 0 0 41.334778 8.737988h0.273062c3.720471 0.409593 7.440943 0.750921 11.161414 0.955718s6.246296 0 9.249979 0.273062h2.150364c3.788737 0 7.577474 0 11.434476-0.341328 2.457559 0 4.915118-0.409593 7.40681-0.648523l4.027666-0.341327a232.956117 232.956117 0 0 0 40.037733-8.328395 275.929268 275.929268 0 0 0 107.074482-62.258162 211.62314 211.62314 0 0 1-107.074482 40.140131 438.401227 438.401227 0 0 1-62.258162 4.266595" fill="#FFC0AD" p-id="113459"></path><path d="M405.59964 564.419393a9.249979 9.249979 0 1 0-6.553491-2.730621 9.249979 9.249979 0 0 0 6.553491 2.730621" fill="#FFFFFF" p-id="113460"></path><path d="M737.335978 636.576057c-3.071949 3.106082-6.246296 6.109765-9.62544 9.01105 0 0 0.819186-5.700172 1.945568-14.950151 1.535974-13.004583 3.413276-33.142914 4.164197-54.612423a189.914701 189.914701 0 0 0-11.536874-85.331911c-17.817303-32.391993-51.199147-62.258162-150.184164-62.258163-51.9842 0-91.748871 15.598673-182.064166 51.84767-1.843169 0.750921-3.003683-0.955717-2.764754-2.969551 0.921585-9.898502-0.648523-31.265612 38.945485-79.461076a1.297045 1.297045 0 0 0-1.331178-2.082098c-40.686255 12.59499-150.184164 38.0239-155.884335 179.265279a331.497408 331.497408 0 0 0 2.764754 56.250796 24.370794 24.370794 0 0 1-17.066383-7.782271 54.236963 54.236963 0 0 1-9.625439-12.048866 73.726771 73.726771 0 0 1-32.391994-3.413276 36.351394 36.351394 0 0 0 36.214863 33.313578 36.897518 36.897518 0 0 0 10.751821-1.60424 277.533508 277.533508 0 0 0 178.309562 172.404593v15.359744q0 3.413276 0.37546 6.826553a62.531224 62.531224 0 0 0 62.155764 55.534008h2.047966a62.531224 62.531224 0 0 0 62.155764-55.534008 55.636406 55.636406 0 0 0 0.409593-6.826553v-14.984283a277.294578 277.294578 0 0 0 179.606607-172.780054 36.965784 36.965784 0 0 0 10.751821 1.60424 36.351394 36.351394 0 0 0 20.786853-66.012766 184.316928 184.316928 0 0 1-26.487025 47.17148 151.515341 151.515341 0 0 1-12.629123 14.062699m-132.571657-99.428743a31.026683 31.026683 0 1 1-24.20013 30.309895 27.78407 27.78407 0 0 1 24.20013-30.309895m-169.02545 151.788404h137.725705a62.326428 62.326428 0 0 1-8.806253 31.675205 69.460176 69.460176 0 0 1-50.516492 33.791437 65.80797 65.80797 0 0 1-9.591306 0.785054 70.962017 70.962017 0 0 1-42.904885-14.950151 65.295978 65.295978 0 0 1-26.521158-51.199147z m-36.112464-151.788404a31.026683 31.026683 0 1 1-24.268396 30.309895 27.78407 27.78407 0 0 1 24.268396-30.309895m272.584257 213.22738a276.031666 276.031666 0 0 1-107.074483 62.258162 233.263312 233.263312 0 0 1-40.037732 8.328395l-4.027666 0.307195c-2.491692 0.238929-4.949251 0.511991-7.40681 0.648522-3.857002 0-7.645739 0.307195-11.434476 0.307195h-2.116232c-3.106082 0-6.212163 0-9.249979-0.273062s-7.440943-0.546124-11.161414-0.955718h-0.238929a231.420143 231.420143 0 0 1-41.334778-8.737987 276.099932 276.099932 0 0 1-106.460092-62.633623l-1.058116-0.921585 1.058116 0.921585a212.237529 212.237529 0 0 0 106.460092 40.515591 459.768337 459.768337 0 0 0 127.17868 0.409594 211.62314 211.62314 0 0 0 107.074482-40.140131 29.729638 29.729638 0 0 0 1.911435-1.706639 21.879102 21.879102 0 0 1-1.9797 1.672506" fill="#FFDBC5" p-id="113461"></path><path d="M611.522608 564.419393a9.284112 9.284112 0 1 0-6.553491-2.730621 9.249979 9.249979 0 0 0 6.553491 2.730621" fill="#FFFFFF" p-id="113462"></path><path d="M461.645639 740.237263a70.99615 70.99615 0 0 0 42.904885 14.950151 65.637306 65.637306 0 0 0 9.591307-0.785054 21.469509 21.469509 0 1 1-26.999017-26.111565 66.79782 66.79782 0 0 1 77.447243-7.543341 62.22403 62.22403 0 0 0 8.806253-31.675205h-13.892035v12.117131h-109.224846v-12.253662h-15.189081a65.295978 65.295978 0 0 0 26.487026 51.199146" fill="#FF6760" p-id="113463"></path><path d="M487.176947 728.017733a67.480475 67.480475 0 0 0-15.086682 18.499958 69.255379 69.255379 0 0 0 92.60219-26.213963 66.79782 66.79782 0 0 0-77.447242 7.543341z" fill="#F39FAE" p-id="113464"></path><path d="M450.347694 688.935718h109.02005v12.117131h-109.02005z" fill="#FFFFFF" p-id="113465"></path><path d="M793.996367 462.225896a393.482509 393.482509 0 0 0-11.912335-110.829086c-29.354177-52.496192-63.282145-50.926085-63.282145-50.926085a94.991483 94.991483 0 0 0-52.462059-58.640089c-103.149214-40.37906-188.754187-3.413276-247.769738-0.785053a136.223863 136.223863 0 0 1-108.200863-39.491609s-87.78947 26.384627-61.438976 140.422193c-48.058932 105.81157-38.740688 174.486692-29.490708 210.872219a27.067282 27.067282 0 0 1-27.784071 36.214863 31.811736 31.811736 0 0 0 20.820987 19.216746 73.692638 73.692638 0 0 0 32.391993 3.413277 54.100432 54.100432 0 0 0 9.62544 12.048866 24.370794 24.370794 0 0 0 17.271179 7.78227 331.599807 331.599807 0 0 1-2.764754-56.250796c5.597773-141.104848 115.19808-166.670289 155.884335-179.094615a1.297045 1.297045 0 0 1 1.331178 2.082099c-39.594007 48.195463-38.0239 69.426043-38.945485 79.426943 0 1.9797 0.921585 3.720471 2.764754 2.96955 90.315295-36.248996 130.079965-51.847669 182.064166-51.847669 98.78022 0 132.264462 30.036833 150.184164 62.258162a189.914701 189.914701 0 0 1 11.536874 85.331911 643.573274 643.573274 0 0 1-4.164197 54.612423c-1.126381 9.249979-1.945568 14.950151-1.945568 14.950151 3.413276-2.901285 6.587624-5.939101 9.62544-9.045182a151.412943 151.412943 0 0 0 12.424326-13.892035 184.521725 184.521725 0 0 0 26.725955-47.512809 213.807637 213.807637 0 0 0 13.892035-66.900218l15.18908-14.57469a23.176147 23.176147 0 0 1 26.760087-2.696489s-17.066382-26.623556-38.296962-29.012849" fill="#333333" p-id="113466"></path></svg>